<svg width="718" height="210" viewBox="0 0 718 210" fill="none" xmlns="http://www.w3.org/2000/svg">
<path d="M62.4156 0.532232L52.982 41.2915C51.7515 46.6919 51.1363 51.2891 51.1363 55.083C51.1363 57.4756 51.3755 59.5264 51.854 61.2354C53.9048 68.6182 58.0918 72.3096 64.4151 72.3096C70.6699 72.3096 76.5318 68.6182 82.0005 61.2354C85.4185 56.6211 88.1187 49.9731 90.1011 41.2915C91.3316 35.8911 91.9468 31.311 91.9468 27.5513C91.9468 25.1929 91.7075 23.125 91.229 21.3477C89.6226 15.4346 86.1021 11.0425 80.6675 8.17139L86.3072 0.532232H86.8198C93.69 3.06153 98.4068 8.667 100.97 17.3486C101.791 20.1172 102.201 23.2617 102.201 26.7822C102.201 30.9522 101.585 35.7886 100.355 41.2915C98.065 51.1353 94.5786 59.1162 89.896 65.2344C81.7954 75.7617 72.6182 81.0254 62.3643 81.0254C52.3155 81.0254 45.6162 75.8813 42.2666 65.5933C34.1319 75.8813 25.0401 81.0254 14.9912 81.0254C4.77151 81.0254 -1.97897 75.7617 -5.26022 65.2344C-6.11472 62.5 -6.54196 59.3726 -6.54196 55.8521C-6.54196 51.5454 -5.90964 46.6919 -4.64499 41.2915C-2.28659 31.1743 1.18265 23.6035 5.76272 18.5791C8.63382 15.4346 11.4707 13.0078 14.2735 11.2988H-0.28708L-0.133272 10.7861L5.60892 2.58301H33.961L33.8072 3.09571L28.065 11.2988C23.0747 12.8711 18.6656 16.084 14.8374 20.9375C10.5308 26.3721 7.45462 33.1567 5.60892 41.2915C4.37845 46.6919 3.76321 51.2891 3.76321 55.083C3.76321 57.4756 4.00247 59.5264 4.48099 61.2354C6.53177 68.6182 10.7188 72.3096 17.042 72.3096C23.2969 72.3096 29.1587 68.6182 34.6275 61.2354C38.0454 56.6211 40.7456 49.9731 42.7281 41.2915L51.085 5.14649L61.9029 0.532232H62.4156ZM168.595 55.6982C167.228 58.9111 165.331 62.0898 162.904 65.2344C154.803 75.7617 145.626 81.0254 135.372 81.0254C125.187 81.0254 118.436 75.7617 115.121 65.2344C114.266 62.5342 113.839 59.4238 113.839 55.9033C113.839 51.5967 114.471 46.7261 115.736 41.2915C118.06 31.311 121.546 23.3301 126.195 17.3486C134.398 6.82129 143.575 1.55762 153.727 1.55762C163.946 1.55762 170.697 6.82129 173.978 17.3486L164.75 21.3477H164.237C162.254 13.9648 158.084 10.2734 151.727 10.2734C145.37 10.2734 139.491 13.9648 134.09 21.3477C131.322 25.1416 128.998 30.3369 127.118 36.9336H157.777L157.674 37.4463L151.932 45.6494H125.118C124.469 49.2725 124.144 52.4512 124.144 55.1855C124.144 57.5439 124.383 59.5605 124.862 61.2354C126.981 68.6182 131.168 72.3096 137.423 72.3096C143.746 72.3096 149.608 68.6182 155.008 61.2354L168.082 55.6982H168.595ZM192.23 80C185.086 80 181.515 77.4365 181.515 72.3096C181.515 71.3184 181.651 70.2246 181.925 69.0283L196.69 5.14649L207.508 0.532232H208.021L192.179 69.0283C191.837 70.5322 192.521 71.2842 194.229 71.2842H211.917C215.951 71.2842 218.941 69.2847 220.89 65.2856H221.402L228.272 68.9258C224.513 76.3086 218.395 80 209.918 80H192.23ZM287.745 55.6982C286.378 58.9111 284.481 62.0898 282.054 65.2344C273.954 75.7617 264.776 81.0254 254.522 81.0254C244.337 81.0254 237.586 75.7617 234.271 65.2344C233.417 62.5342 232.989 59.4238 232.989 55.9033C232.989 51.5967 233.622 46.7261 234.886 41.2915C237.21 31.311 240.697 23.3301 245.345 17.3486C253.548 6.82129 262.726 1.55762 272.877 1.55762C283.097 1.55762 289.847 6.82129 293.128 17.3486L283.9 21.3477H283.387C281.405 13.9648 277.235 10.2734 270.877 10.2734C264.554 10.2734 258.675 13.9648 253.241 21.3477C249.789 26.0303 247.088 32.6782 245.14 41.2915C243.91 46.7261 243.294 51.3403 243.294 55.1343C243.294 57.4585 243.534 59.4922 244.012 61.2354C246.029 68.6182 250.216 72.3096 256.573 72.3096C262.896 72.3096 268.758 68.6182 274.159 61.2354L287.232 55.6982H287.745ZM315.174 41.2915C313.944 46.7261 313.329 51.3403 313.329 55.1343C313.329 57.4927 313.568 59.5435 314.046 61.2866C316.063 68.6353 320.25 72.3096 326.607 72.3096C332.862 72.3096 338.724 68.6182 344.193 61.2354C347.577 56.6553 350.277 50.0073 352.293 41.2915C353.524 35.9595 354.139 31.3965 354.139 27.6025C354.139 25.2441 353.9 23.1592 353.421 21.3477C351.473 13.9648 347.303 10.2734 340.912 10.2734C334.588 10.2734 328.709 13.9648 323.275 21.3477C319.823 26.0303 317.123 32.6782 315.174 41.2915ZM304.92 41.3428C307.21 31.3623 310.697 23.3643 315.379 17.3486C323.583 6.82129 332.76 1.55762 342.911 1.55762C353.199 1.55762 359.95 6.82129 363.163 17.3486C363.983 20.0488 364.393 23.1421 364.393 26.6284C364.393 30.8667 363.778 35.7544 362.547 41.2915C360.291 51.2036 356.805 59.1846 352.088 65.2344C343.885 75.7617 334.708 81.0254 324.557 81.0254C314.405 81.0254 307.655 75.7788 304.305 65.2856C303.451 62.6196 303.023 59.4922 303.023 55.9033C303.023 51.4941 303.656 46.6406 304.92 41.3428ZM415.919 82.0508L425.301 41.2915C426.532 35.9595 427.147 31.3965 427.147 27.6025C427.147 25.2441 426.908 23.1592 426.429 21.3477C424.481 13.9648 420.311 10.2734 413.919 10.2734C407.562 10.2734 401.683 13.9648 396.283 21.3477C392.865 26.0303 390.165 32.6782 388.182 41.2915C386.952 46.6577 386.336 51.2378 386.336 55.0317C386.336 57.3901 386.576 59.458 387.054 61.2354C388.626 67.1484 392.147 71.5405 397.616 74.4116L392.027 82.0508H391.515C384.61 79.5215 379.876 73.916 377.313 65.2344C376.493 62.4658 376.083 59.3213 376.083 55.8008C376.083 51.5283 376.698 46.6919 377.928 41.2915C380.252 31.311 383.739 23.3301 388.387 17.3486C396.556 6.82129 405.733 1.55762 415.919 1.55762C425.968 1.55762 432.684 6.70167 436.068 16.9898C444.168 6.70167 453.243 1.55762 463.292 1.55762C473.478 1.55762 480.228 6.82129 483.543 17.3486C484.398 20.0488 484.825 23.1592 484.825 26.6797C484.825 30.9863 484.193 35.8569 482.928 41.2915C480.57 51.4429 477.118 59.0137 472.572 64.0039C469.735 67.1143 466.881 69.541 464.01 71.2842H478.57L478.468 71.7969L472.726 80H444.374L444.476 79.4873L450.218 71.2842C455.208 69.7119 459.635 66.499 463.497 61.6455C467.701 56.3477 470.76 49.563 472.674 41.2915C473.905 35.9595 474.52 31.3965 474.52 27.6025C474.52 25.2441 474.281 23.1592 473.802 21.3477C471.854 13.9648 467.684 10.2734 461.292 10.2734C454.935 10.2734 449.056 13.9648 443.656 21.3477C440.272 25.9619 437.572 32.6099 435.555 41.2915L427.25 77.4365L416.432 82.0508H415.919ZM551.168 55.6982C549.801 58.9111 547.904 62.0898 545.477 65.2344C537.376 75.7617 528.199 81.0254 517.945 81.0254C507.76 81.0254 501.009 75.7617 497.694 65.2344C496.839 62.5342 496.412 59.4238 496.412 55.9033C496.412 51.5967 497.044 46.7261 498.309 41.2915C500.633 31.311 504.12 23.3301 508.768 17.3486C516.971 6.82129 526.148 1.55762 536.3 1.55762C546.52 1.55762 553.27 6.82129 556.551 17.3486L547.323 21.3477H546.81C544.828 13.9648 540.658 10.2734 534.3 10.2734C527.943 10.2734 522.064 13.9648 516.664 21.3477C513.895 25.1416 511.571 30.3369 509.691 36.9336H540.35L540.248 37.4463L534.505 45.6494H507.691C507.042 49.2725 506.717 52.4512 506.717 55.1855C506.717 57.5439 506.957 59.5605 507.435 61.2354C509.554 68.6182 513.741 72.3096 519.996 72.3096C526.319 72.3096 532.181 68.6182 537.582 61.2354L550.655 55.6982H551.168ZM614.486 82.0508L630.841 11.2988H624.637C620.57 11.2988 617.579 13.2983 615.665 17.2974H615.152L608.333 13.6572C612.059 6.27442 618.177 2.58301 626.688 2.58301H665.038L664.884 3.09571L659.142 11.2988H641.095L625.816 77.4365L614.999 82.0508H614.486ZM668.114 41.2915C666.883 46.7261 666.268 51.3403 666.268 55.1343C666.268 57.4927 666.507 59.5435 666.986 61.2866C669.002 68.6353 673.189 72.3096 679.547 72.3096C685.802 72.3096 691.664 68.6182 697.132 61.2354C700.516 56.6553 703.216 50.0073 705.233 41.2915C706.463 35.9595 707.079 31.3965 707.079 27.6025C707.079 25.2441 706.839 23.1592 706.361 21.3477C704.413 13.9648 700.243 10.2734 693.851 10.2734C687.528 10.2734 681.649 13.9648 676.214 21.3477C672.762 26.0303 670.062 32.6782 668.114 41.2915ZM657.86 41.3428C660.15 31.3623 663.636 23.3643 668.319 17.3486C676.522 6.82129 685.699 1.55762 695.851 1.55762C706.139 1.55762 712.889 6.82129 716.102 17.3486C716.922 20.0488 717.333 23.1421 717.333 26.6284C717.333 30.8667 716.717 35.7544 715.487 41.2915C713.231 51.2036 709.745 59.1846 705.028 65.2344C696.825 75.7617 687.647 81.0254 677.496 81.0254C667.345 81.0254 660.594 75.7788 657.245 65.2856C656.39 62.6196 655.963 59.4922 655.963 55.9033C655.963 51.4941 656.595 46.6406 657.86 41.3428ZM9.60794 168.292C8.37747 173.726 7.76224 178.34 7.76224 182.134C7.76224 184.493 8.00149 186.543 8.48001 188.287C10.4966 195.635 14.6836 199.31 21.041 199.31C27.2959 199.31 33.1577 195.618 38.6265 188.235C42.0103 183.655 44.7105 177.007 46.7271 168.292C47.9575 162.959 48.5728 158.396 48.5728 154.603C48.5728 152.244 48.3335 150.159 47.855 148.348C45.9068 140.965 41.7368 137.273 35.3452 137.273C29.022 137.273 23.1431 140.965 17.7085 148.348C14.2564 153.03 11.5562 159.678 9.60794 168.292ZM-0.645967 168.343C1.64407 158.362 5.1304 150.364 9.81302 144.349C18.0161 133.821 27.1934 128.558 37.3448 128.558C47.6328 128.558 54.3833 133.821 57.5962 144.349C58.4165 147.049 58.8267 150.142 58.8267 153.628C58.8267 157.867 58.2115 162.754 56.981 168.292C54.7251 178.204 51.2388 186.185 46.522 192.234C38.3189 202.762 29.1416 208.025 18.9903 208.025C8.8389 208.025 2.08841 202.779 -1.2612 192.286C-2.11569 189.62 -2.54294 186.492 -2.54294 182.903C-2.54294 178.494 -1.91062 173.641 -0.645967 168.343ZM139.422 127.532L129.989 168.292C127.699 178.169 124.212 186.15 119.53 192.234C111.395 202.762 102.218 208.025 91.9981 208.025C81.7783 208.025 75.0279 202.762 71.7466 192.234C70.8921 189.5 70.4649 186.373 70.4649 182.852C70.4649 178.545 71.0972 173.692 72.3618 168.292C74.7202 158.174 78.1895 150.604 82.7696 145.579C85.6407 142.435 88.4776 140.008 91.2803 138.299H76.7198L76.8736 137.786L82.6158 129.583H110.968L110.814 130.096L105.072 138.299C100.082 139.871 95.6724 143.084 91.8443 147.938C87.5376 153.372 84.4615 160.157 82.6158 168.292C81.3853 173.692 80.77 178.289 80.77 182.083C80.77 184.476 81.0093 186.526 81.4878 188.235C83.5386 195.618 87.7256 199.31 94.0489 199.31C100.338 199.31 106.2 195.618 111.634 188.235C115.052 183.587 117.752 176.939 119.735 168.292L128.092 132.146L138.91 127.532H139.422ZM140.089 209.051L149.471 168.292C151.761 158.345 155.248 150.364 159.93 144.349C168.133 133.821 177.311 128.558 187.462 128.558C196.007 128.558 202.005 131.702 205.458 137.991C207.337 141.409 208.277 145.084 208.277 149.014C208.277 151.099 208.021 153.252 207.508 155.474C206.141 161.353 202.809 166.839 197.511 171.932C194.093 175.213 190.213 177.64 185.873 179.212L197.87 204.795L187.872 209.051H187.359L174.388 181.365H162.801L162.955 180.853L168.697 172.649H174.747C181.173 172.649 186.129 171.077 189.615 167.933C193.614 164.31 196.161 160.157 197.254 155.474C197.699 153.56 197.921 151.783 197.921 150.142C197.921 146.963 197.101 144.263 195.46 142.042C193.102 138.863 189.769 137.273 185.462 137.273C179.173 137.273 173.294 140.965 167.826 148.348C164.442 152.928 161.742 159.576 159.725 168.292L151.419 204.437L140.602 209.051H140.089ZM329.735 127.532L320.301 168.292C319.071 173.692 318.456 178.289 318.456 182.083C318.456 184.476 318.695 186.526 319.173 188.235C321.224 195.618 325.411 199.31 331.734 199.31C337.989 199.31 343.851 195.618 349.32 188.235C352.738 183.621 355.438 176.973 357.42 168.292C358.651 162.891 359.266 158.311 359.266 154.551C359.266 152.193 359.027 150.125 358.548 148.348C356.942 142.435 353.421 138.042 347.987 135.171L353.626 127.532H354.139C361.009 130.062 365.726 135.667 368.29 144.349C369.11 147.117 369.52 150.262 369.52 153.782C369.52 157.952 368.905 162.789 367.674 168.292C365.384 178.135 361.898 186.116 357.215 192.234C349.115 202.762 339.937 208.025 329.684 208.025C319.635 208.025 312.936 202.881 309.586 192.593C301.451 202.881 292.359 208.025 282.311 208.025C272.091 208.025 265.34 202.762 262.059 192.234C261.205 189.5 260.777 186.373 260.777 182.852C260.777 178.545 261.41 173.692 262.674 168.292C265.033 158.174 268.502 150.604 273.082 145.579C275.953 142.435 278.79 140.008 281.593 138.299H267.032L267.186 137.786L272.928 129.583H301.28L301.126 130.096L295.384 138.299C290.394 139.871 285.985 143.084 282.157 147.938C277.85 153.372 274.774 160.157 272.928 168.292C271.698 173.692 271.083 178.289 271.083 182.083C271.083 184.476 271.322 186.526 271.8 188.235C273.851 195.618 278.038 199.31 284.361 199.31C290.616 199.31 296.478 195.618 301.947 188.235C305.365 183.621 308.065 176.973 310.047 168.292L318.404 132.146L329.222 127.532H329.735ZM435.914 182.698C434.547 185.911 432.65 189.09 430.223 192.234C422.123 202.762 412.945 208.025 402.691 208.025C392.506 208.025 385.755 202.762 382.44 192.234C381.585 189.534 381.158 186.424 381.158 182.903C381.158 178.597 381.791 173.726 383.055 168.292C385.379 158.311 388.866 150.33 393.514 144.349C401.717 133.821 410.895 128.558 421.046 128.558C431.266 128.558 438.016 133.821 441.297 144.349L432.069 148.348H431.556C429.574 140.965 425.404 137.273 419.046 137.273C412.689 137.273 406.81 140.965 401.41 148.348C398.641 152.142 396.317 157.337 394.437 163.934H425.096L424.994 164.446L419.251 172.649H392.437C391.788 176.272 391.463 179.451 391.463 182.186C391.463 184.544 391.703 186.561 392.181 188.235C394.3 195.618 398.487 199.31 404.742 199.31C411.065 199.31 416.927 195.618 422.328 188.235L435.401 182.698H435.914ZM445.245 209.051L454.627 168.292C456.917 158.345 460.404 150.364 465.086 144.349C473.29 133.821 482.467 128.558 492.618 128.558C498.36 128.558 502.804 130.13 505.948 133.274C508.546 135.872 509.845 139.205 509.845 143.272C509.845 144.878 509.64 146.622 509.229 148.501C507.965 154.346 504.239 159.234 498.053 163.165C499.625 163.882 501.043 164.959 502.308 166.395C505.145 169.573 506.563 173.35 506.563 177.725C506.563 179.468 506.341 181.331 505.897 183.313C504.256 190.149 500.787 195.704 495.489 199.976C489.679 204.659 482.689 207 474.52 207H464.625L464.728 206.487L470.47 198.284H476.52C481.51 198.284 485.97 196.609 489.901 193.26C492.704 190.867 494.583 187.654 495.541 183.621C495.916 182.049 496.104 180.579 496.104 179.212C496.104 176.99 495.592 175.076 494.566 173.47C492.345 169.983 488.653 168.24 483.492 168.24H473.597L473.7 167.728L479.442 159.524H485.492C488.944 159.524 491.952 158.414 494.515 156.192C496.839 154.175 498.377 151.526 499.129 148.245C499.369 147.186 499.488 146.177 499.488 145.22C499.488 143.375 498.993 141.751 498.001 140.35C496.498 138.299 494.037 137.273 490.619 137.273C484.261 137.273 478.382 140.965 472.982 148.348C469.598 152.962 466.898 159.61 464.881 168.292L456.576 204.437L445.758 209.051H445.245ZM515.125 192.234C515.125 192.234 518.202 190.901 524.354 188.235H524.867C526.883 195.618 531.07 199.31 537.428 199.31C541.837 199.31 546.195 197.344 550.501 193.414C553.578 190.611 555.663 186.971 556.756 182.493C557.03 181.365 557.167 180.306 557.167 179.314C557.167 177.229 556.603 175.418 555.475 173.88C553.458 171.146 550.143 169.266 545.528 168.24C540.47 167.112 536.368 165.198 533.224 162.498C530.284 159.969 528.814 156.79 528.814 152.962C528.814 151.731 528.968 150.398 529.276 148.963C530.746 142.776 534.129 137.718 539.427 133.787C544.11 130.301 549.391 128.558 555.27 128.558C562.926 128.558 567.984 132.454 570.445 140.247L561.422 144.092H560.909C559.679 139.546 557.132 137.273 553.27 137.273C550.023 137.273 547.135 138.316 544.605 140.401C542.11 142.452 540.487 145.049 539.735 148.194C539.53 149.048 539.427 149.834 539.427 150.552C539.427 152.227 539.94 153.594 540.965 154.654C542.811 156.636 546.007 158.106 550.553 159.063C556.705 160.362 561.354 163.028 564.498 167.061C566.686 169.864 567.779 173.196 567.779 177.059C567.779 178.904 567.54 180.818 567.062 182.801C565.626 189.192 561.815 195.003 555.628 200.232C549.476 205.428 542.726 208.025 535.377 208.025C525.157 208.025 518.407 202.762 515.125 192.234ZM577.418 209.051L595.157 132.146L605.975 127.532H606.488L588.749 204.437L577.931 209.051H577.418ZM614.999 209.051L631.354 138.299H625.15C621.083 138.299 618.092 140.298 616.178 144.297H615.665L608.846 140.657C612.572 133.274 618.69 129.583 627.201 129.583H665.55L665.396 130.096L659.654 138.299H641.607L626.329 204.437L615.511 209.051H614.999ZM709.693 182.698C708.326 185.911 706.429 189.09 704.002 192.234C695.902 202.762 686.725 208.025 676.471 208.025C666.285 208.025 659.535 202.762 656.219 192.234C655.365 189.534 654.937 186.424 654.937 182.903C654.937 178.597 655.57 173.726 656.834 168.292C659.159 158.311 662.645 150.33 667.293 144.349C675.497 133.821 684.674 128.558 694.825 128.558C705.045 128.558 711.795 133.821 715.077 144.349L705.848 148.348H705.335C703.353 140.965 699.183 137.273 692.826 137.273C686.468 137.273 680.589 140.965 675.189 148.348C672.42 152.142 670.096 157.337 668.216 163.934H698.875L698.773 164.446L693.031 172.649H666.217C665.567 176.272 665.243 179.451 665.243 182.186C665.243 184.544 665.482 186.561 665.96 188.235C668.08 195.618 672.267 199.31 678.521 199.31C684.845 199.31 690.707 195.618 696.107 188.235L709.181 182.698H709.693Z" fill="white"/>
</svg>
