<svg width="126" height="35" viewBox="0 0 126 35" fill="none" xmlns="http://www.w3.org/2000/svg">
<path fill-rule="evenodd" clip-rule="evenodd" d="M18.1312 0H17.6095C13.2743 0.0868794 9.0043 1.73759 5.85592 4.5773C2.165 7.82908 0.0469517 12.5677 0 17.3436V17.7879C0.0886866 22.4645 2.14674 27.094 5.73072 30.311C8.90518 33.2301 13.256 34.9305 17.6721 35H18.1834C24.1514 34.9355 29.8952 31.7557 32.9992 26.9227C35.6546 22.9163 36.4711 17.8773 35.292 13.2826C34.3034 9.31844 31.8098 5.70674 28.3562 3.29397C25.4217 1.20887 21.7908 0.064539 18.1312 0ZM10.0271 14.2209C11.7122 14.6901 13.5094 14.4046 15.1501 13.9007C16.0542 13.6171 16.9443 13.2928 17.8343 12.9686L17.8343 12.9686C19.2733 12.4444 20.7123 11.9201 22.2111 11.5674C24.217 11.1206 26.4707 11.4805 28.0775 12.7465C28.3954 13.037 28.3947 13.4569 28.394 13.855V13.855V13.855V13.855V13.8551C28.3938 13.9535 28.3937 14.0505 28.3983 14.144C28.3804 15.4254 28.3868 16.7071 28.3931 17.9888V17.9891V17.9891V17.9892V17.9893V17.9893C28.4012 19.6159 28.4093 21.2424 28.3677 22.8677C28.3579 23.2498 27.9703 23.4989 27.6194 23.3473C26.6265 22.9183 25.6282 22.487 24.5117 22.467C22.1833 22.3452 20.031 23.0806 17.8745 23.8175L17.8745 23.8175L17.8745 23.8175C16.1197 24.417 14.3623 25.0175 12.5051 25.1578C11.268 25.2398 9.99012 25.0569 8.85725 24.5717C8.04391 24.2234 7.41348 23.5261 7.44023 22.6418C7.44579 22.458 7.4513 22.2758 7.43697 22.1021C7.46293 20.9552 7.45144 19.8061 7.43994 18.6569V18.6569C7.42475 17.1385 7.40955 15.6199 7.48076 14.106C7.50386 13.6148 8.00484 13.3186 8.44037 13.5469C8.95002 13.8141 9.45934 14.0811 10.0271 14.2209ZM45.3866 8.71709C43.8632 8.72624 42.6188 9.96157 42.6184 11.485C42.618 13.5093 42.618 15.5339 42.618 17.5586C42.618 19.479 42.618 21.3996 42.6176 23.3201C42.6173 25.0223 43.9959 26.4027 45.698 26.4027C46.7252 26.4027 47.7525 26.4027 48.7804 26.4039C50.2751 26.4064 51.7853 26.1333 53.1208 25.4755C56.6735 23.8174 58.7316 19.8308 58.0508 16.1347C57.4874 12.2872 53.9555 9.01808 49.8525 8.75744C48.3645 8.6992 46.8755 8.70815 45.3867 8.71709H45.3867H45.3866H45.3866H45.3866ZM46.5022 21.1503C46.5088 18.6739 46.5154 16.1975 46.5 13.7211C46.496 13.0657 47.0359 12.5298 47.6912 12.519C48.5687 12.5044 49.4476 12.4899 50.3069 12.667C52.4484 13.1337 54.0995 15.0326 54.2508 17.1078C54.4778 19.173 53.2179 21.3053 51.2146 22.1493C50.1288 22.6376 48.9353 22.6139 47.7542 22.5904H47.7541H47.7541H47.7541H47.754C47.0687 22.5767 46.4999 22.0185 46.5018 21.333C46.5019 21.2721 46.5021 21.2112 46.5022 21.1503ZM64.9545 15.8692C65.0797 12.0341 68.708 8.58867 72.7876 8.72023C76.7863 8.68052 80.2973 12.0514 80.4564 15.8121C80.4979 17.9726 80.4915 20.134 80.4851 22.2952C80.481 23.662 80.477 25.0286 80.4851 26.3949C80.4851 26.3958 80.4843 26.3965 80.4835 26.3965C79.8217 26.3977 79.1606 26.399 78.4998 26.3993C77.4469 26.3997 76.5948 25.5507 76.5959 24.4978V24.4957V24.4956V24.4955C76.597 23.4475 75.7442 22.6052 74.6963 22.6063C73.8033 22.6073 72.9106 22.6066 72.018 22.6058H72.0172H72.017H72.0169H72.0167C71.4225 22.6053 70.8283 22.6048 70.2342 22.6048C69.4495 22.6048 68.8143 23.238 68.8175 24.0227V24.0232C68.8228 25.3466 67.732 26.3947 66.4086 26.3979C66.3456 26.3981 66.2826 26.3982 66.2196 26.3984C65.5079 26.4002 64.9332 25.8221 64.9333 25.1104C64.9334 24.2634 64.931 23.4163 64.9287 22.5693C64.9225 20.3352 64.9163 18.1012 64.9545 15.8692ZM69.8115 13.7891C68.7529 14.8776 68.7837 16.3464 68.8133 17.7539C68.8254 18.331 69.2949 18.8087 69.8721 18.8087C70.5568 18.8088 71.2416 18.8084 71.9265 18.808H71.9265H71.9266H71.9267C73.132 18.8073 74.3373 18.8066 75.5423 18.8084C76.116 18.8093 76.5843 18.3359 76.5978 17.7623V17.762V17.7616V17.7612C76.6303 16.3854 76.6641 14.9526 75.6674 13.866C74.2771 12.1284 71.2513 12.0887 69.8115 13.7891ZM87.2795 15.9089C87.3943 12.533 90.1671 9.4004 93.6858 8.83196C96.3047 8.35289 99.1114 9.33338 100.817 11.2745C102.137 12.6571 102.81 14.5288 102.81 16.3855C102.815 18.6112 102.814 20.8358 102.812 23.0607C102.811 23.7333 102.811 24.4058 102.81 25.0785C102.81 25.809 102.22 26.401 101.49 26.3985H101.49H101.489C100.089 26.3937 98.9248 25.2716 98.9208 23.8711C98.9178 22.8286 98.9203 21.7861 98.9228 20.7435C98.9262 19.2882 98.9297 17.8329 98.9183 16.3781C98.9392 15.0277 98.1801 13.6823 96.9385 13.0121C95.65 12.2774 93.9049 12.3866 92.7233 13.2703C91.7008 13.9976 91.1296 15.2089 91.1478 16.4153C91.1419 18.3153 91.1427 20.2144 91.1436 22.1137V22.1201C91.144 23.073 91.1444 24.026 91.144 24.979C91.1436 25.7627 90.5064 26.3975 89.7227 26.3988C88.3508 26.4012 87.256 25.2761 87.2588 23.9042C87.2605 23.0482 87.2579 22.1922 87.2553 21.3361C87.2499 19.5268 87.2444 17.7175 87.2795 15.9089ZM110.849 12.1457C112.349 9.9216 115.119 8.48685 117.918 8.74004C121.082 8.92621 123.889 11.2198 124.765 14.0868C125.089 15.0548 125.104 16.066 125.12 17.0762V17.0763C125.128 17.6542 125.137 18.2317 125.204 18.8007V23.3975C125.204 25.0567 123.881 26.404 122.222 26.3986C121.673 26.3968 121.227 25.9521 121.228 25.4026C121.228 25.326 121.228 25.2494 121.228 25.1728V25.1728V25.172C121.231 23.7409 120.058 22.6049 118.627 22.6069C117.914 22.6079 117.201 22.6065 116.488 22.6051H116.488H116.487C116.106 22.6044 115.726 22.6036 115.345 22.6032C114.297 22.6022 113.449 23.4525 113.449 24.5015C113.449 25.55 112.598 26.3989 111.55 26.3989H111.505C110.431 26.3989 109.56 25.5286 109.56 24.4544C109.56 23.4733 109.56 22.4924 109.56 21.5116C109.56 19.8829 109.56 18.2546 109.558 16.6262C109.54 15.0574 109.934 13.4638 110.849 12.1457ZM114.423 13.8138C113.385 14.8983 113.416 16.3553 113.445 17.7521V17.7525C113.457 18.3303 113.927 18.8086 114.505 18.8089C115.881 18.8096 117.256 18.8091 118.631 18.8087H118.635C119.14 18.8085 119.644 18.8084 120.149 18.8083C120.738 18.8081 121.217 18.3204 121.23 17.7318L121.23 17.7313C121.261 16.3615 121.293 14.9383 120.294 13.8585C118.891 12.1184 115.852 12.0961 114.423 13.8138Z" fill="#108EE9"/>
</svg>
