<svg width="116" height="42" viewBox="0 0 116 42" fill="none" xmlns="http://www.w3.org/2000/svg">
<path d="M46.545 21.4092C46.545 21.217 46.5151 21.0461 46.4553 20.8965C46.3998 20.747 46.2994 20.6103 46.1541 20.4864C46.0088 20.3625 45.8038 20.2428 45.5389 20.1275C45.2783 20.0079 44.945 19.8861 44.5391 19.7622C44.0948 19.6255 43.6846 19.4738 43.3087 19.3072C42.937 19.1363 42.6122 18.9397 42.3345 18.7176C42.0568 18.4911 41.8411 18.2327 41.6873 17.9421C41.5334 17.6473 41.4565 17.3077 41.4565 16.9231C41.4565 16.5429 41.5356 16.1968 41.6937 15.8849C41.856 15.573 42.0846 15.3039 42.3794 15.0774C42.6785 14.8467 43.0309 14.6694 43.4368 14.5455C43.8427 14.4173 44.2913 14.3533 44.7827 14.3533C45.4748 14.3533 46.0708 14.4814 46.5707 14.7378C47.0748 14.9941 47.4615 15.3381 47.7307 15.7696C48.0041 16.2011 48.1408 16.6775 48.1408 17.1987H46.545C46.545 16.8911 46.4788 16.6198 46.3464 16.3848C46.2182 16.1456 46.0217 15.9576 45.7568 15.8208C45.4962 15.6841 45.165 15.6158 44.7634 15.6158C44.3832 15.6158 44.067 15.6734 43.8149 15.7888C43.5629 15.9042 43.3749 16.0601 43.251 16.2566C43.1271 16.4532 43.0651 16.6753 43.0651 16.9231C43.0651 17.0983 43.1057 17.2585 43.1869 17.4038C43.2681 17.5448 43.392 17.6772 43.5586 17.8011C43.7252 17.9208 43.9346 18.034 44.1866 18.1408C44.4387 18.2476 44.7357 18.3501 45.0775 18.4484C45.5944 18.6022 46.0452 18.7731 46.4297 18.9611C46.8142 19.1448 47.1346 19.3542 47.391 19.5892C47.6473 19.8241 47.8396 20.0912 47.9678 20.3902C48.0959 20.685 48.16 21.0204 48.16 21.3964C48.16 21.7895 48.081 22.1441 47.9229 22.4603C47.7648 22.7721 47.5384 23.0392 47.2436 23.2613C46.9531 23.4792 46.6027 23.648 46.1926 23.7676C45.7867 23.883 45.3338 23.9407 44.8339 23.9407C44.3853 23.9407 43.9431 23.8808 43.5073 23.7612C43.0758 23.6416 42.6827 23.46 42.3281 23.2165C41.9735 22.9687 41.6915 22.6611 41.4822 22.2936C41.2728 21.9219 41.1682 21.4883 41.1682 20.9927H42.7767C42.7767 21.296 42.828 21.5545 42.9305 21.7681C43.0374 21.9817 43.1848 22.1569 43.3727 22.2936C43.5607 22.4261 43.7786 22.5243 44.0264 22.5884C44.2785 22.6525 44.5477 22.6846 44.8339 22.6846C45.2099 22.6846 45.5239 22.6311 45.776 22.5243C46.0323 22.4175 46.2246 22.268 46.3528 22.0757C46.481 21.8835 46.545 21.6613 46.545 21.4092ZM50.9542 13.9687V23.8125H49.4161V13.9687H50.9542ZM50.6851 20.089L50.1852 20.0826C50.1895 19.6041 50.2557 19.1619 50.3838 18.756C50.5163 18.3501 50.7 17.9977 50.935 17.6986C51.1743 17.3952 51.4605 17.1624 51.7938 17C52.127 16.8334 52.4966 16.7501 52.9025 16.7501C53.2443 16.7501 53.5519 16.7971 53.8253 16.8911C54.103 16.9851 54.3423 17.1368 54.5431 17.3461C54.7439 17.5512 54.8956 17.8204 54.9981 18.1536C55.1049 18.4826 55.1583 18.8842 55.1583 19.3584V23.8125H53.6074V19.3456C53.6074 19.0124 53.5583 18.7475 53.46 18.5509C53.366 18.3544 53.2272 18.2134 53.0435 18.128C52.8597 18.0383 52.6354 17.9934 52.3705 17.9934C52.0928 17.9934 51.8472 18.0489 51.6335 18.16C51.4242 18.2711 51.249 18.4228 51.108 18.615C50.967 18.8073 50.8602 19.0295 50.7876 19.2815C50.7192 19.5336 50.6851 19.8028 50.6851 20.089ZM56.4272 20.4223V20.2749C56.4272 19.775 56.4999 19.3114 56.6451 18.8842C56.7904 18.4527 56.9998 18.0788 57.2732 17.7627C57.5509 17.4422 57.8884 17.1944 58.2858 17.0193C58.6874 16.8398 59.1403 16.7501 59.6444 16.7501C60.1528 16.7501 60.6057 16.8398 61.0031 17.0193C61.4047 17.1944 61.7443 17.4422 62.022 17.7627C62.2997 18.0788 62.5112 18.4527 62.6565 18.8842C62.8018 19.3114 62.8744 19.775 62.8744 20.2749V20.4223C62.8744 20.9222 62.8018 21.3857 62.6565 21.813C62.5112 22.2402 62.2997 22.6141 62.022 22.9345C61.7443 23.2507 61.4068 23.4985 61.0095 23.6779C60.6121 23.8531 60.1614 23.9407 59.6572 23.9407C59.1488 23.9407 58.6938 23.8531 58.2922 23.6779C57.8948 23.4985 57.5573 23.2507 57.2796 22.9345C57.0019 22.6141 56.7904 22.2402 56.6451 21.813C56.4999 21.3857 56.4272 20.9222 56.4272 20.4223ZM57.9717 20.2749V20.4223C57.9717 20.7342 58.0038 21.029 58.0679 21.3067C58.132 21.5844 58.2324 21.8279 58.3691 22.0373C58.5058 22.2466 58.681 22.4111 58.8946 22.5307C59.1082 22.6504 59.3624 22.7102 59.6572 22.7102C59.9435 22.7102 60.1913 22.6504 60.4006 22.5307C60.6143 22.4111 60.7894 22.2466 60.9261 22.0373C61.0629 21.8279 61.1633 21.5844 61.2274 21.3067C61.2957 21.029 61.3299 20.7342 61.3299 20.4223V20.2749C61.3299 19.9673 61.2957 19.6767 61.2274 19.4033C61.1633 19.1256 61.0607 18.8799 60.9197 18.6663C60.783 18.4527 60.6078 18.2861 60.3942 18.1664C60.1849 18.0425 59.9349 17.9806 59.6444 17.9806C59.3539 17.9806 59.1018 18.0425 58.8882 18.1664C58.6788 18.2861 58.5058 18.4527 58.3691 18.6663C58.2324 18.8799 58.132 19.1256 58.0679 19.4033C58.0038 19.6767 57.9717 19.9673 57.9717 20.2749ZM65.7198 18.2113V26.4785H64.1754V16.8783H65.5981L65.7198 18.2113ZM70.238 20.2813V20.4159C70.238 20.92 70.1782 21.3879 70.0585 21.8194C69.9432 22.2466 69.7701 22.6205 69.5394 22.9409C69.313 23.2571 69.0331 23.5027 68.6999 23.6779C68.3666 23.8531 67.9821 23.9407 67.5463 23.9407C67.1148 23.9407 66.7367 23.8616 66.412 23.7035C66.0916 23.5412 65.8202 23.3126 65.5981 23.0178C65.3759 22.723 65.1965 22.3769 65.0598 21.9796C64.9273 21.578 64.8333 21.1379 64.7778 20.6594V20.1403C64.8333 19.6319 64.9273 19.1705 65.0598 18.756C65.1965 18.3416 65.3759 17.9848 65.5981 17.6858C65.8202 17.3867 66.0916 17.156 66.412 16.9936C66.7324 16.8313 67.1063 16.7501 67.5335 16.7501C67.9693 16.7501 68.356 16.8356 68.6935 17.0065C69.031 17.1731 69.3151 17.4123 69.5458 17.7242C69.7765 18.0318 69.9496 18.4035 70.0649 18.8393C70.1803 19.2709 70.238 19.7515 70.238 20.2813ZM68.6935 20.4159V20.2813C68.6935 19.9609 68.6636 19.6639 68.6038 19.3905C68.5439 19.1128 68.4499 18.8692 68.3218 18.6599C68.1936 18.4505 68.0291 18.2882 67.8283 18.1728C67.6318 18.0532 67.3947 17.9934 67.1169 17.9934C66.8435 17.9934 66.6085 18.0404 66.412 18.1344C66.2155 18.2241 66.051 18.3501 65.9185 18.5125C65.7861 18.6749 65.6835 18.865 65.6109 19.0829C65.5383 19.2965 65.487 19.5293 65.4571 19.7814V21.0247C65.5084 21.3323 65.5959 21.6143 65.7198 21.8707C65.8437 22.127 66.0189 22.3321 66.2454 22.4859C66.4761 22.6354 66.7709 22.7102 67.1298 22.7102C67.4075 22.7102 67.6446 22.6504 67.8411 22.5307C68.0377 22.4111 68.1979 22.2466 68.3218 22.0373C68.4499 21.8237 68.5439 21.578 68.6038 21.3003C68.6636 21.0226 68.6935 20.7278 68.6935 20.4159ZM74.6087 23.9407C74.096 23.9407 73.6324 23.8573 73.218 23.6907C72.8079 23.5198 72.4575 23.2827 72.167 22.9794C71.8807 22.676 71.6607 22.3193 71.5069 21.9091C71.3531 21.4989 71.2762 21.0567 71.2762 20.5825V20.3262C71.2762 19.7836 71.3552 19.2922 71.5133 18.8522C71.6714 18.4121 71.8914 18.0361 72.1734 17.7242C72.4554 17.4081 72.7886 17.1667 73.1732 17C73.5577 16.8334 73.9742 16.7501 74.4228 16.7501C74.9185 16.7501 75.3521 16.8334 75.7238 17C76.0955 17.1667 76.4031 17.4017 76.6467 17.705C76.8945 18.0041 77.0782 18.3608 77.1978 18.7753C77.3217 19.1897 77.3837 19.6468 77.3837 20.1467V20.8068H72.026V19.6981H75.8584V19.5763C75.8499 19.2986 75.7943 19.038 75.6918 18.7945C75.5935 18.5509 75.4418 18.3544 75.2368 18.2049C75.0317 18.0553 74.7582 17.9806 74.4164 17.9806C74.1601 17.9806 73.9315 18.0361 73.7307 18.1472C73.5342 18.254 73.3697 18.41 73.2372 18.615C73.1048 18.8201 73.0023 19.0679 72.9296 19.3584C72.8613 19.6447 72.8271 19.9673 72.8271 20.3262V20.5825C72.8271 20.8858 72.8677 21.1678 72.9489 21.4285C73.0343 21.6848 73.1582 21.9091 73.3206 22.1014C73.4829 22.2936 73.6794 22.4453 73.9102 22.5564C74.1409 22.6632 74.4036 22.7166 74.6984 22.7166C75.0701 22.7166 75.4012 22.6418 75.6918 22.4923C75.9823 22.3428 76.2344 22.1313 76.448 21.8578L77.2619 22.6461C77.1124 22.864 76.918 23.0733 76.6787 23.2742C76.4395 23.4707 76.1468 23.6309 75.8007 23.7548C75.4589 23.8787 75.0616 23.9407 74.6087 23.9407ZM81.6454 23.9407C81.1327 23.9407 80.6692 23.8573 80.2548 23.6907C79.8446 23.5198 79.4943 23.2827 79.2037 22.9794C78.9175 22.676 78.6974 22.3193 78.5436 21.9091C78.3898 21.4989 78.3129 21.0567 78.3129 20.5825V20.3262C78.3129 19.7836 78.392 19.2922 78.55 18.8522C78.7081 18.4121 78.9282 18.0361 79.2101 17.7242C79.4921 17.4081 79.8254 17.1667 80.2099 17C80.5944 16.8334 81.011 16.7501 81.4596 16.7501C81.9552 16.7501 82.3889 16.8334 82.7606 17C83.1323 17.1667 83.4399 17.4017 83.6834 17.705C83.9312 18.0041 84.1149 18.3608 84.2346 18.7753C84.3585 19.1897 84.4204 19.6468 84.4204 20.1467V20.8068H79.0627V19.6981H82.8951V19.5763C82.8866 19.2986 82.8311 19.038 82.7285 18.7945C82.6302 18.5509 82.4786 18.3544 82.2735 18.2049C82.0684 18.0553 81.795 17.9806 81.4532 17.9806C81.1968 17.9806 80.9683 18.0361 80.7675 18.1472C80.5709 18.254 80.4064 18.41 80.274 18.615C80.1415 18.8201 80.039 19.0679 79.9664 19.3584C79.898 19.6447 79.8638 19.9673 79.8638 20.3262V20.5825C79.8638 20.8858 79.9044 21.1678 79.9856 21.4285C80.071 21.6848 80.1949 21.9091 80.3573 22.1014C80.5196 22.2936 80.7162 22.4453 80.9469 22.5564C81.1776 22.6632 81.4404 22.7166 81.7352 22.7166C82.1069 22.7166 82.438 22.6418 82.7285 22.4923C83.019 22.3428 83.2711 22.1313 83.4847 21.8578L84.2986 22.6461C84.1491 22.864 83.9547 23.0733 83.7154 23.2742C83.4762 23.4707 83.1835 23.6309 82.8375 23.7548C82.4957 23.8787 82.0983 23.9407 81.6454 23.9407ZM92.5915 20.3326H90.1626V19.0572H92.5915C93.0145 19.0572 93.3563 18.9889 93.6169 18.8522C93.8775 18.7154 94.0676 18.5275 94.1873 18.2882C94.3112 18.0447 94.3731 17.767 94.3731 17.4551C94.3731 17.1603 94.3112 16.8847 94.1873 16.6283C94.0676 16.3677 93.8775 16.1584 93.6169 16.0003C93.3563 15.8422 93.0145 15.7632 92.5915 15.7632H90.6561V23.8125H89.0475V14.4814H92.5915C93.3135 14.4814 93.9266 14.6096 94.4308 14.866C94.9392 15.118 95.3259 15.4684 95.5908 15.917C95.8556 16.3613 95.9881 16.8697 95.9881 17.4422C95.9881 18.0447 95.8556 18.5616 95.5908 18.9931C95.3259 19.4247 94.9392 19.7558 94.4308 19.9865C93.9266 20.2172 93.3135 20.3326 92.5915 20.3326ZM101.109 22.4218V19.1149C101.109 18.8671 101.064 18.6535 100.974 18.474C100.884 18.2946 100.748 18.1557 100.564 18.0575C100.384 17.9592 100.158 17.9101 99.8846 17.9101C99.6325 17.9101 99.4146 17.9528 99.2309 18.0383C99.0472 18.1237 98.904 18.2391 98.8015 18.3843C98.699 18.5296 98.6477 18.6941 98.6477 18.8778H97.1096C97.1096 18.6044 97.1758 18.3395 97.3083 18.0831C97.4407 17.8268 97.633 17.5982 97.8851 17.3974C98.1371 17.1966 98.4384 17.0385 98.7887 16.9231C99.139 16.8078 99.5321 16.7501 99.9679 16.7501C100.489 16.7501 100.951 16.8377 101.352 17.0129C101.758 17.188 102.076 17.4529 102.307 17.8075C102.542 18.1579 102.66 18.5979 102.66 19.1277V22.2103C102.66 22.5265 102.681 22.8106 102.724 23.0627C102.771 23.3105 102.837 23.5262 102.922 23.7099V23.8125H101.339C101.267 23.6459 101.209 23.4344 101.166 23.178C101.128 22.9174 101.109 22.6653 101.109 22.4218ZM101.333 19.5956L101.346 20.5505H100.237C99.9508 20.5505 99.6987 20.5782 99.4808 20.6338C99.2629 20.685 99.0814 20.7619 98.9361 20.8645C98.7908 20.967 98.6819 21.0909 98.6092 21.2362C98.5366 21.3815 98.5003 21.5459 98.5003 21.7297C98.5003 21.9134 98.543 22.0821 98.6285 22.2359C98.7139 22.3855 98.8378 22.503 99.0002 22.5884C99.1668 22.6739 99.3676 22.7166 99.6026 22.7166C99.9188 22.7166 100.194 22.6525 100.429 22.5243C100.669 22.3919 100.857 22.2317 100.993 22.0437C101.13 21.8514 101.203 21.6698 101.211 21.4989L101.711 22.1847C101.66 22.3598 101.572 22.5478 101.448 22.7486C101.324 22.9494 101.162 23.1417 100.961 23.3254C100.765 23.5049 100.528 23.6523 100.25 23.7676C99.9764 23.883 99.6603 23.9407 99.3014 23.9407C98.8485 23.9407 98.4448 23.8509 98.0901 23.6715C97.7355 23.4878 97.4578 23.2421 97.257 22.9345C97.0562 22.6226 96.9558 22.2701 96.9558 21.8771C96.9558 21.5096 97.0242 21.1849 97.1609 20.9029C97.3019 20.6167 97.507 20.3774 97.7761 20.1852C98.0496 19.9929 98.3828 19.8476 98.7759 19.7494C99.1689 19.6468 99.6175 19.5956 100.122 19.5956H101.333ZM106.184 23.0563L108.068 16.8783H109.722L106.941 24.8699C106.876 25.0408 106.793 25.2267 106.691 25.4275C106.588 25.6283 106.453 25.8184 106.287 25.9978C106.125 26.1816 105.922 26.329 105.678 26.44C105.435 26.5554 105.14 26.6131 104.794 26.6131C104.657 26.6131 104.524 26.6003 104.396 26.5746C104.272 26.5533 104.155 26.5298 104.044 26.5041L104.037 25.3249C104.08 25.3292 104.131 25.3335 104.191 25.3378C104.255 25.342 104.307 25.3442 104.345 25.3442C104.601 25.3442 104.815 25.3121 104.986 25.248C105.157 25.1882 105.296 25.09 105.402 24.9532C105.514 24.8165 105.608 24.6328 105.684 24.4021L106.184 23.0563ZM105.12 16.8783L106.768 22.0693L107.043 23.6971L105.973 23.9727L103.454 16.8783H105.12Z" fill="#EB5B3B"/>
<path fill-rule="evenodd" clip-rule="evenodd" d="M15.9772 0.0188997C14.6411 0.116868 13.3621 0.583056 12.2552 1.3755C11.9401 1.6011 11.345 2.13284 11.0981 2.40941C10.1568 3.46367 9.54097 4.67587 9.25159 6.04409C9.17403 6.4108 9.12484 6.76143 9.10701 7.07452C9.0989 7.21692 8.98106 7.32824 8.83843 7.32824H5.57491C1.69338 7.32824 1.92266 7.32049 1.72281 7.45823C1.57719 7.55858 1.49312 7.70814 1.47906 7.89182C1.4727 7.97487 1.69137 12.484 1.96499 17.9121C2.50647 28.6534 2.46932 28.0661 2.63637 28.5291C2.947 29.39 3.67333 30.0483 4.56867 30.2805C4.97774 30.3866 4.2785 30.3806 16.3817 30.3806C28.5144 30.3806 27.7979 30.3868 28.241 30.2772C28.4857 30.2167 28.9361 30.0143 29.1666 29.8612C29.8165 29.4297 30.2528 28.774 30.3781 28.0403C30.3986 27.9205 30.6264 23.9349 30.9607 17.8457C31.5052 7.92966 31.5094 7.84695 31.4684 7.73061C31.4186 7.58911 31.2873 7.45363 31.1346 7.38623C31.0634 7.35482 30.9865 7.33853 30.9087 7.33841L27.4626 7.33311L24.0283 7.3278C23.9546 7.32768 23.893 7.27179 23.8857 7.19848C23.8787 7.12746 23.8618 6.95749 23.8481 6.82079C23.6562 4.89861 22.6915 3.04419 21.2277 1.78338C19.7506 0.511143 17.8723 -0.120058 15.9772 0.0188997ZM17.2558 1.82613C17.9199 1.93887 18.5021 2.14854 19.0634 2.47711C20.3069 3.20508 21.2568 4.46343 21.6543 5.90946C21.7684 6.32455 21.825 6.66013 21.87 7.18843C21.8765 7.26364 21.8171 7.32824 21.7416 7.32824H16.4929H11.3579C11.22 7.32824 11.1106 7.21218 11.1186 7.07452C11.1456 6.61357 11.2635 6.02862 11.4217 5.57024C11.8033 4.46488 12.4568 3.54132 13.3373 2.86284C14.0791 2.29129 14.9011 1.94583 15.8472 1.80803C16.1147 1.76907 16.9856 1.78026 17.2558 1.82613ZM17.2778 11.1485C18.5889 11.3001 19.7276 11.6496 20.8343 12.2402C21.1151 12.3901 21.2491 12.4931 21.2726 12.5769C21.2933 12.6508 21.2358 12.7601 21.0042 13.087C20.9117 13.2176 20.8012 13.3757 20.7587 13.4383C20.5946 13.68 20.5416 13.6817 20.1383 13.4581C19.0192 12.8376 17.874 12.5206 16.5089 12.4534C16.0356 12.4301 15.4718 12.5008 14.9947 12.6432C14.1319 12.9007 13.4432 13.4411 13.1538 14.0877C12.9941 14.4444 12.9414 14.7462 12.9821 15.0707C13.1049 16.0482 13.9102 16.771 15.538 17.3644C15.7144 17.4287 16.0987 17.5538 16.3919 17.6424C17.3904 17.944 18.0882 18.1923 18.7513 18.4822C20.6622 19.3177 21.6587 20.2521 21.9535 21.485C22.0255 21.7857 22.0419 22.3829 21.9887 22.7594C21.7943 24.1334 20.933 25.2329 19.5719 25.8444C18.9987 26.102 18.3564 26.2691 17.526 26.3767C17.1526 26.4251 16.2777 26.4247 15.7843 26.3759C14.382 26.2373 12.9987 25.8361 12.0241 25.2854C11.4793 24.9776 10.7656 24.5029 10.733 24.4267C10.6996 24.3487 10.7312 24.293 11.0548 23.861C11.4254 23.366 11.4917 23.2973 11.5983 23.2973C11.6896 23.2973 11.7388 23.3219 11.9148 23.4553C12.2764 23.7296 12.9301 24.1032 13.4342 24.3237C14.5286 24.8024 15.754 25.0509 16.7367 24.9933C17.9711 24.921 18.9734 24.5744 19.6258 23.9942C19.9796 23.6795 20.201 23.3447 20.3281 22.9321C20.3853 22.7462 20.391 22.6958 20.3905 22.3756C20.3899 21.9899 20.3655 21.8709 20.2192 21.5437C19.9233 20.8815 19.2037 20.274 18.1616 19.8064C17.7491 19.6213 17.4354 19.5094 16.7987 19.32C15.9125 19.0563 14.6195 18.6046 13.9957 18.3407C13.3884 18.0838 12.6875 17.614 12.2654 17.1811C11.5711 16.4688 11.2587 15.6879 11.3034 14.7762C11.3578 13.6664 11.9869 12.6652 13.0644 11.9739C13.7867 11.5104 14.7037 11.2126 15.699 11.1182C15.9757 11.0919 16.9503 11.1107 17.2778 11.1485ZM2.15289 32.8691C1.20179 32.9767 0.449244 33.511 0.231223 34.2332C0.175718 34.4171 0.17551 34.8158 0.230807 34.9961C0.319046 35.2836 0.479205 35.524 0.729822 35.7452C1.10858 36.0795 1.54532 36.2735 2.66825 36.6064C3.59364 36.8808 4.01008 37.1315 4.2312 37.5472C4.29817 37.6731 4.30275 37.6966 4.30169 37.9096C4.30039 38.1728 4.2595 38.293 4.10607 38.4849C3.80716 38.8589 3.07033 39.0968 2.39999 39.0356C1.792 38.9802 1.25422 38.7852 0.60427 38.3846C0.411794 38.266 0.407425 38.2683 0.1219 38.6484C0.0236506 38.7791 -0.00889887 38.8393 0.00201261 38.8701C0.0193739 38.9191 0.232356 39.075 0.465311 39.2093C1.2284 39.6491 2.28741 39.8655 3.12383 39.7527C3.91204 39.6463 4.46966 39.3685 4.82084 38.9074C4.92498 38.7707 5.0638 38.4969 5.11143 38.3342C5.16966 38.1354 5.18334 37.7001 5.13743 37.5065C5.09746 37.3378 4.98405 37.1065 4.86545 36.9518C4.67256 36.7002 4.27203 36.4207 3.80096 36.2091C3.47748 36.0637 3.20575 35.9679 2.63836 35.7993C2.10568 35.6409 1.69086 35.4651 1.47245 35.3052C1.29861 35.178 1.14048 34.9813 1.09029 34.8299C0.951334 34.4106 1.23198 33.9412 1.75538 33.7174C2.00075 33.6124 2.21873 33.5705 2.51852 33.5705C3.03078 33.5705 3.55141 33.702 4.04249 33.9554C4.32758 34.1025 4.32936 34.1027 4.42722 34.0102C4.56689 33.878 4.75361 33.6141 4.75361 33.5488C4.75361 33.4696 4.61932 33.3786 4.28275 33.2294C3.83913 33.0328 3.35285 32.9141 2.79685 32.8669C2.51126 32.8426 2.38284 32.8431 2.15289 32.8691ZM6.01516 32.8781C5.98245 32.9074 5.97884 33.247 5.97884 36.3073C5.97884 38.6091 5.98656 39.7169 6.00277 39.744C6.02494 39.7811 6.05464 39.7841 6.4045 39.7841C6.6848 39.7841 6.78867 39.7772 6.80705 39.7574C6.82383 39.7393 6.8343 39.334 6.8396 38.4991C6.8467 37.3778 6.85113 37.2574 6.88926 37.1537C7.05004 36.7161 7.41062 36.397 7.88604 36.2716C7.978 36.2473 8.10265 36.235 8.25592 36.235C8.52359 36.235 8.68461 36.2707 8.92466 36.3833C9.23904 36.5308 9.48542 36.7919 9.60263 37.1019C9.64408 37.2115 9.66587 37.3275 9.66699 37.4447L9.67725 38.5207L9.6854 39.3746C9.68751 39.5965 9.86639 39.7763 10.0884 39.7794L10.425 39.7842C10.4628 39.7847 10.4972 39.7624 10.512 39.7276C10.5286 39.6886 10.5336 39.275 10.5274 38.4378L10.5198 37.4189C10.5188 37.2773 10.4976 37.1366 10.4569 37.001C10.2363 36.266 9.61377 35.7204 8.7824 35.5334C8.6193 35.4967 8.51391 35.4878 8.24436 35.4881C7.9513 35.4883 7.8801 35.4955 7.67798 35.5451C7.41573 35.6095 7.12099 35.7303 6.9636 35.838C6.90493 35.8781 6.8518 35.9109 6.84554 35.9109C6.8393 35.9109 6.83419 35.2309 6.83419 34.3997C6.83419 32.9267 6.83306 32.8879 6.78948 32.867C6.76435 32.8549 6.59286 32.8455 6.39812 32.8455C6.11382 32.8455 6.04496 32.8514 6.01516 32.8781ZM13.3437 35.4561C12.6858 35.5488 12.1182 35.8471 11.7296 36.3045C11.5883 36.4708 11.4058 36.8026 11.3438 37.0061C10.9939 38.1533 11.7572 39.318 13.0649 39.6324C13.2723 39.6823 13.3352 39.6879 13.6885 39.6879C14.0419 39.6879 14.1048 39.6823 14.3122 39.6324C15.2992 39.3951 15.9936 38.6779 16.1034 37.7822C16.1826 37.1358 15.9093 36.4881 15.3633 36.0286C15.0404 35.7569 14.6396 35.5688 14.2037 35.4846C13.9997 35.4451 13.5315 35.4296 13.3437 35.4561ZM17.0348 35.4559C17.0036 35.4672 16.9828 35.4968 16.9828 35.5299V38.7249C16.9828 41.6696 16.9862 41.9763 17.0194 41.9877C17.067 42.0041 17.7077 42.0041 17.7553 41.9877C17.7882 41.9764 17.7919 41.8357 17.7919 40.6104C17.7919 39.8597 17.7997 39.2458 17.8092 39.2461C17.8188 39.2464 17.889 39.2892 17.9653 39.3411C18.1422 39.4614 18.5162 39.625 18.7396 39.6797C19.9833 39.9843 21.2925 39.3767 21.6988 38.3064C21.9017 37.772 21.8691 37.2108 21.6058 36.7036C21.3512 36.2133 20.8488 35.7875 20.3004 35.5973C19.7355 35.4015 19.0458 35.402 18.4976 35.5987C18.2832 35.6756 18.0783 35.7813 17.9265 35.8933C17.867 35.9372 17.8123 35.9731 17.8051 35.9731C17.7978 35.9731 17.7919 35.861 17.7919 35.724C17.7919 35.4757 17.7917 35.4749 17.7326 35.4547C17.6587 35.4296 17.1054 35.4305 17.0348 35.4559ZM24.6347 35.4572C24.552 35.4684 24.384 35.5083 24.2612 35.5459C23.6726 35.7257 23.2161 36.0902 22.9349 36.6048C22.6778 37.0753 22.6224 37.5024 22.7492 38.039C22.9172 38.7507 23.5172 39.3478 24.3079 39.5903C24.5986 39.6795 24.9059 39.7092 25.3976 39.6958C25.7226 39.6869 25.8183 39.6762 26.0449 39.6233C26.363 39.549 26.6341 39.4396 26.9002 39.2781C27.2168 39.0859 27.2346 39.0419 27.0829 38.8294C26.8077 38.4438 26.7861 38.4288 26.6553 38.5325C26.2317 38.8682 25.61 39.0374 25.0219 38.9771C24.7185 38.946 24.4158 38.8556 24.2159 38.7365C23.9145 38.557 23.6569 38.2522 23.5619 37.9628C23.5416 37.901 23.525 37.8474 23.525 37.8437C23.525 37.8401 24.3351 37.8372 25.3251 37.8372H27.0472C27.0979 37.8372 27.1474 37.8215 27.1888 37.7923C27.2928 37.719 27.3114 37.6476 27.2907 37.4022C27.2436 36.8468 27.0005 36.3891 26.5472 36.0023C26.2461 35.7453 25.9337 35.5911 25.5187 35.4948C25.3079 35.4458 24.8586 35.4267 24.6347 35.4572ZM30.1786 35.4555C29.9423 35.4891 29.7588 35.5397 29.543 35.6308C29.2689 35.7467 29.1486 35.8212 28.9263 36.0131C28.701 36.2075 28.5743 36.3643 28.4386 36.6163C28.0471 37.3437 28.1406 38.2115 28.6799 38.8545C28.9702 39.2004 29.4007 39.4708 29.8748 39.6047C30.372 39.7452 31.1763 39.7356 31.7202 39.5826C32.122 39.4696 32.6138 39.2014 32.6794 39.0595C32.7049 39.0044 32.6997 38.9875 32.6204 38.8686C32.4581 38.6251 32.3326 38.4792 32.2855 38.4792C32.2608 38.4792 32.176 38.5259 32.097 38.5829C31.6759 38.8869 31.0765 39.036 30.5164 38.9762C30.1082 38.9325 29.8223 38.8254 29.5424 38.6112C29.332 38.4501 29.1007 38.1159 29.0605 37.9148C29.0525 37.8746 29.0832 37.8372 29.1242 37.8372L30.8334 37.8371C32.5652 37.837 32.6241 37.8357 32.6957 37.7966C32.8092 37.7346 32.8319 37.6385 32.7982 37.3608C32.7533 36.9893 32.6367 36.6829 32.4323 36.3992C32.0082 35.8104 31.3404 35.467 30.5759 35.4446C30.4297 35.4403 30.2509 35.4452 30.1786 35.4555ZM25.3167 36.2038C25.3802 36.2158 25.5301 36.2676 25.6498 36.3189C25.943 36.4446 26.1763 36.6489 26.3195 36.9052C26.3637 36.9842 26.3068 37.0816 26.2163 37.0819L25.014 37.0865C24.2419 37.0895 23.6062 37.0883 23.6013 37.0839C23.5826 37.0671 23.6891 36.8519 23.7705 36.7421C24.1019 36.2948 24.6979 36.0873 25.3167 36.2038ZM30.8649 36.2138C31.258 36.2993 31.6568 36.5876 31.8427 36.9206C31.8855 36.9972 31.8301 37.0915 31.7424 37.0915H30.5176H29.2134C29.1586 37.0915 29.1218 37.0352 29.1439 36.985C29.2733 36.6908 29.5305 36.4404 29.8397 36.3075C30.1696 36.1656 30.5032 36.1352 30.8649 36.2138ZM14.1021 36.221C14.3843 36.2857 14.5844 36.3906 14.812 36.5934C15.1278 36.8746 15.2724 37.181 15.2717 37.5671C15.2713 37.8067 15.2271 37.9862 15.1207 38.1794C14.9201 38.5436 14.5432 38.8175 14.0931 38.9261C13.8909 38.9749 13.4877 38.9751 13.284 38.9266C12.721 38.7923 12.2853 38.4029 12.1414 37.9055C12.095 37.7449 12.0946 37.4132 12.1406 37.2383C12.2666 36.7597 12.7199 36.3502 13.2659 36.222C13.4992 36.1672 13.8655 36.1668 14.1021 36.221ZM19.6087 36.2025C20.1985 36.276 20.6785 36.6248 20.8957 37.1376C20.9647 37.3007 20.9683 37.3236 20.9689 37.6093C20.9696 37.8974 20.9666 37.9166 20.8964 38.081C20.7431 38.4397 20.483 38.7001 20.1152 38.8633C19.8141 38.9968 19.6655 39.0251 19.3292 39.0125C19.0933 39.0037 19.0227 38.9925 18.8572 38.9377C18.4663 38.808 18.1481 38.5571 17.9764 38.2431C17.7378 37.807 17.7444 37.3692 17.996 36.9362C18.1053 36.7479 18.3939 36.4839 18.6046 36.3794C18.9394 36.2133 19.2527 36.1581 19.6087 36.2025Z" fill="#EB5B3B"/>
</svg>
