<svg width="37" height="46" viewBox="0 0 37 46" fill="none" xmlns="http://www.w3.org/2000/svg">
<path d="M18.7881 13.0506C16.994 13.0506 14.2168 11.0107 11.292 11.0844C7.43339 11.1336 3.89424 13.3209 1.90347 16.7864C-2.10264 23.7418 0.871223 34.0151 4.77903 39.6679C6.69607 42.4206 8.95719 45.5173 11.9556 45.419C14.8312 45.2961 15.9126 43.5511 19.4026 43.5511C22.868 43.5511 23.8511 45.419 26.8987 45.3453C29.9954 45.2961 31.9616 42.5435 33.8541 39.7662C36.0415 36.5712 36.9508 33.4744 37 33.3024C36.9263 33.2778 30.9785 30.9921 30.9048 24.1104C30.8557 18.3593 35.5991 15.6066 35.8203 15.4838C33.1168 11.5268 28.9632 11.0844 27.5131 10.9861C23.7282 10.6912 20.5577 13.0506 18.7881 13.0506ZM25.1783 7.25033C26.7758 5.33329 27.8326 2.65436 27.5377 0C25.252 0.0983096 22.4993 1.5238 20.8526 3.44084C19.378 5.13668 18.1 7.86477 18.4441 10.47C20.9755 10.6666 23.5807 9.16737 25.1783 7.25033Z" fill="black"/>
</svg>
