<svg width="38" height="38" viewBox="0 0 38 38" fill="none" xmlns="http://www.w3.org/2000/svg">
<path fill-rule="evenodd" clip-rule="evenodd" d="M36.2628 18.9222C36.2628 17.6103 36.1451 16.3488 35.9264 15.1378H18.5015V22.2945H28.4586C28.0297 24.6072 26.7262 26.5667 24.7667 27.8786V32.5208H30.746C34.2445 29.2998 36.2628 24.5567 36.2628 18.9222Z" fill="#4285F4"/>
<path fill-rule="evenodd" clip-rule="evenodd" d="M18.5013 37.0029C23.4967 37.0029 27.6848 35.3462 30.7459 32.5205L24.7666 27.8783C23.1099 28.9884 20.9906 29.6444 18.5013 29.6444C13.6825 29.6444 9.60382 26.3898 8.14893 22.0167H1.96777V26.8103C5.0121 32.8569 11.2689 37.0029 18.5013 37.0029Z" fill="#34A853"/>
<path fill-rule="evenodd" clip-rule="evenodd" d="M8.14904 22.0165C7.77901 20.9064 7.56877 19.7206 7.56877 18.5012C7.56877 17.2818 7.77901 16.096 8.14904 14.9859V10.1924H1.96788C0.714828 12.6901 0 15.5157 0 18.5012C0 21.4867 0.714828 24.3123 1.96788 26.81L8.14904 22.0165Z" fill="#FBBC05"/>
<path fill-rule="evenodd" clip-rule="evenodd" d="M18.5013 7.35865C21.2177 7.35865 23.6565 8.29213 25.5739 10.1255L30.8805 4.81891C27.6764 1.83345 23.4883 0.00012207 18.5013 0.00012207C11.2689 0.00012207 5.0121 4.14613 1.96777 10.1927L8.14893 14.9863C9.60382 10.6132 13.6825 7.35865 18.5013 7.35865Z" fill="#EA4335"/>
</svg>
