<svg width="61" height="61" viewBox="0 0 61 61" fill="none" xmlns="http://www.w3.org/2000/svg">
<path d="M30.5005 38.75C35.057 38.75 38.7507 35.0563 38.7507 30.5C38.7507 25.9437 35.057 22.25 30.5005 22.25C25.9441 22.25 22.2504 25.9437 22.2504 30.5C22.2504 35.0563 25.9441 38.75 30.5005 38.75Z" stroke="white" stroke-width="5.50005" stroke-linecap="round" stroke-linejoin="round"/>
<path d="M49.0009 38C48.6681 38.754 48.5689 39.5905 48.7159 40.4015C48.863 41.2125 49.2496 41.9608 49.8259 42.55L49.9759 42.7C50.4408 43.1644 50.8096 43.7158 51.0613 44.3228C51.3129 44.9298 51.4424 45.5804 51.4424 46.2375C51.4424 46.8946 51.3129 47.5452 51.0613 48.1522C50.8096 48.7592 50.4408 49.3106 49.9759 49.775C49.5116 50.2399 48.9601 50.6087 48.3531 50.8603C47.7461 51.1119 47.0955 51.2414 46.4384 51.2414C45.7813 51.2414 45.1306 51.1119 44.5236 50.8603C43.9166 50.6087 43.3652 50.2399 42.9008 49.775L42.7508 49.625C42.1616 49.0487 41.4132 48.662 40.6022 48.515C39.7912 48.3679 38.9548 48.4672 38.2007 48.8C37.4613 49.1169 36.8306 49.6431 36.3864 50.3138C35.9422 50.9846 35.7039 51.7705 35.7007 52.575V53C35.7007 54.3261 35.1739 55.5979 34.2362 56.5355C33.2985 57.4732 32.0267 58 30.7006 58C29.3744 58 28.1026 57.4732 27.1649 56.5355C26.2272 55.5979 25.7005 54.3261 25.7005 53V52.775C25.6811 51.9475 25.4132 51.145 24.9317 50.4718C24.4502 49.7985 23.7773 49.2857 23.0004 49C22.2463 48.6672 21.4099 48.5679 20.5989 48.715C19.7879 48.862 19.0395 49.2487 18.4503 49.825L18.3003 49.975C17.8359 50.4399 17.2845 50.8087 16.6775 51.0603C16.0705 51.3119 15.4198 51.4414 14.7627 51.4414C14.1056 51.4414 13.455 51.3119 12.848 51.0603C12.241 50.8087 11.6895 50.4399 11.2252 49.975C10.7603 49.5106 10.3915 48.9592 10.1398 48.3522C9.88822 47.7452 9.7587 47.0946 9.7587 46.4375C9.7587 45.7804 9.88822 45.1298 10.1398 44.5228C10.3915 43.9158 10.7603 43.3644 11.2252 42.9L11.3752 42.75C11.9515 42.1608 12.3382 41.4125 12.4852 40.6015C12.6323 39.7905 12.533 38.954 12.2002 38.2C11.8833 37.4606 11.3571 36.83 10.6863 36.3858C10.0156 35.9416 9.22959 35.7032 8.42511 35.7H8.0001C6.67399 35.7 5.4022 35.1732 4.4645 34.2355C3.52679 33.2979 3 32.0261 3 30.7C3 29.3739 3.52679 28.1021 4.4645 27.1645C5.4022 26.2268 6.67399 25.7 8.0001 25.7H8.2251C9.05261 25.6806 9.85515 25.4128 10.5284 24.9313C11.2016 24.4498 11.7145 23.7768 12.0002 23C12.333 22.246 12.4322 21.4095 12.2852 20.5985C12.1381 19.7875 11.7515 19.0392 11.1752 18.45L11.0252 18.3C10.5603 17.8356 10.1915 17.2842 9.93984 16.6772C9.68821 16.0702 9.5587 15.4196 9.5587 14.7625C9.5587 14.1054 9.68821 13.4548 9.93984 12.8478C10.1915 12.2408 10.5603 11.6894 11.0252 11.225C11.4895 10.7601 12.041 10.3913 12.648 10.1397C13.255 9.88808 13.9056 9.75857 14.5627 9.75857C15.2198 9.75857 15.8705 9.88808 16.4775 10.1397C17.0845 10.3913 17.6359 10.7601 18.1003 11.225L18.2503 11.375C18.8395 11.9513 19.5879 12.338 20.3989 12.485C21.2099 12.6321 22.0463 12.5328 22.8004 12.2H23.0004C23.7398 11.8831 24.3705 11.3569 24.8147 10.6862C25.2589 10.0154 25.4972 9.22947 25.5004 8.425V8C25.5004 6.67392 26.0272 5.40215 26.9649 4.46447C27.9026 3.52678 29.1744 3 30.5005 3C31.8267 3 33.0985 3.52678 34.0362 4.46447C34.9739 5.40215 35.5006 6.67392 35.5006 8V8.225C35.5039 9.02947 35.7422 9.81544 36.1864 10.4862C36.6306 11.1569 37.2613 11.6831 38.0007 12C38.7548 12.3328 39.5912 12.4321 40.4022 12.285C41.2132 12.138 41.9616 11.7513 42.5508 11.175L42.7008 11.025C43.1652 10.5601 43.7166 10.1913 44.3236 9.9397C44.9306 9.68808 45.5813 9.55857 46.2384 9.55857C46.8955 9.55857 47.5461 9.68808 48.1531 9.9397C48.7601 10.1913 49.3116 10.5601 49.7759 11.025C50.2408 11.4894 50.6096 12.0408 50.8613 12.6478C51.1129 13.2548 51.2424 13.9054 51.2424 14.5625C51.2424 15.2196 51.1129 15.8702 50.8613 16.4772C50.6096 17.0842 50.2408 17.6356 49.7759 18.1L49.6259 18.25C49.0496 18.8392 48.6629 19.5875 48.5159 20.3985C48.3688 21.2095 48.4681 22.046 48.8009 22.8V23C49.1178 23.7394 49.644 24.37 50.3148 24.8142C50.9855 25.2584 51.7715 25.4968 52.576 25.5H53.001C54.3271 25.5 55.5989 26.0268 56.5366 26.9645C57.4743 27.9021 58.0011 29.1739 58.0011 30.5C58.0011 31.8261 57.4743 33.0979 56.5366 34.0355C55.5989 34.9732 54.3271 35.5 53.001 35.5H52.776C51.9715 35.5032 51.1855 35.7416 50.5148 36.1858C49.844 36.63 49.3178 37.2606 49.0009 38Z" stroke="white" stroke-width="5.50005" stroke-linecap="round" stroke-linejoin="round"/>
</svg>
